<?xml version="1.0" encoding="UTF-8"?>
<svg version="1.1" xmlns="http://www.w3.org/2000/svg" width="225" height="225">
<path d="M0 0 C74.25 0 148.5 0 225 0 C225 74.25 225 148.5 225 225 C150.75 225 76.5 225 0 225 C0 150.75 0 76.5 0 0 Z " fill="#040503" transform="translate(0,0)"/>
<path d="M0 0 C28.05 0 56.1 0 85 0 C78 12 78 12 75.62890625 15.96875 C71.32719019 23.25246374 67.65248601 30.67220797 64.4375 38.5 C64.09082275 39.32435547 63.74414551 40.14871094 63.38696289 40.99804688 C60.11283221 49.26847582 60.25595677 55.96932702 63.546875 64.3125 C66.97575028 70.65407578 72.29944009 74.69586602 79.0625 77 C80.36869303 77.35724938 81.67941565 77.70029291 83 78 C83 79.65 83 81.3 83 83 C70.625 83.495 70.625 83.495 58 84 C58 85.65 58 87.3 58 89 C58.9513382 89.00142502 59.90267639 89.00285004 60.88284302 89.00431824 C69.85805509 89.02100381 78.83281467 89.06382484 87.80778694 89.13209057 C92.42172849 89.1663492 97.03533932 89.19146878 101.64941406 89.19555664 C106.1041763 89.19984204 110.55819265 89.22832435 115.01272202 89.27343178 C116.71028165 89.28639913 118.40793058 89.29071714 120.1055336 89.28615379 C122.48799951 89.28124203 124.86829018 89.30736135 127.25048828 89.34057617 C127.94892349 89.33195053 128.6473587 89.32332489 129.36695862 89.31443787 C134.93652712 89.44420426 137.20193261 91.22402502 141 95 C143.87773781 99.3082412 143.80522003 104.00608729 143 109 C139.6667792 117.21638927 128.55996994 120.72820933 121 124 C116.77678608 125.76003132 112.54127379 127.48921279 108.30371094 129.21429443 C79.57114534 140.82132911 79.57114534 140.82132911 60 164 C54.07076005 180.07994525 53.08910351 194.12734247 60 210 C62.92748751 215.33609867 66.35274017 220.1369869 70 225 C46.9 225 23.8 225 0 225 C0 150.75 0 76.5 0 0 Z " fill="#93C44A" transform="translate(0,0)"/>
<path d="M0 0 C0.33 0 0.66 0 1 0 C1 45.21 1 90.42 1 137 C-10.55 137 -22.1 137 -34 137 C-35.65 133.7 -37.3 130.4 -39 127 C-46.23896931 118.35345332 -56.50284349 112.73240679 -66.2421875 107.36328125 C-67.52996094 106.62271484 -67.52996094 106.62271484 -68.84375 105.8671875 C-69.61912109 105.43519043 -70.39449219 105.00319336 -71.19335938 104.55810547 C-73.54341085 102.53134486 -73.50987476 100.99394797 -74 98 C-74.845625 97.34 -75.69125 96.68 -76.5625 96 C-79 94 -79 94 -79.3125 91.25 C-79.209375 90.5075 -79.10625 89.765 -79 89 C-79.8353125 88.7215625 -79.8353125 88.7215625 -80.6875 88.4375 C-84.8825694 85.82975416 -87.45708016 81.62875951 -89 77 C-89.70571662 69.83871168 -89.42265127 63.86031753 -85 58 C-79.21900841 51.47396415 -71.63840444 46.95452929 -64.29638672 42.38769531 C-58.56573961 38.7305651 -55.20232146 35.60696437 -53 29 C-52.3000452 21.89718002 -52.55385207 15.80197875 -57 10 C-59.04873923 7.98644904 -61.14908103 6.14334567 -63.390625 4.34765625 C-63.92171875 3.90292969 -64.4528125 3.45820312 -65 3 C-65 2.67 -65 2.34 -65 2 C-64.20042374 1.98969254 -63.40084747 1.97938507 -62.57704163 1.96876526 C-55.05732704 1.87095918 -47.53769807 1.76846935 -40.01812077 1.66066074 C-36.1518399 1.60539645 -32.28555152 1.551971 -28.41918945 1.50268555 C-24.69089913 1.4550935 -20.96270348 1.40275285 -17.23452568 1.34705925 C-15.80913067 1.32661222 -14.38370968 1.30790309 -12.95826912 1.29092598 C-10.96829459 1.26693404 -8.97840345 1.23629864 -6.98852539 1.20532227 C-5.28642662 1.18200584 -5.28642662 1.18200584 -3.54994202 1.15821838 C-1.06584162 1.28649473 -1.06584162 1.28649473 0 0 Z " fill="#93C44A" transform="translate(224,88)"/>
<path d="M0 0 C7.60307523 2.17230721 12.30254314 5.82619956 17 12 C18.19519103 14.39038206 18.26991328 16.08241396 18.375 18.75 C18.42398438 19.59046875 18.47296875 20.4309375 18.5234375 21.296875 C17.43958587 26.89407895 13.30127738 29.94221271 8.8203125 33 C7.26133437 34.00952378 5.69605893 35.00938156 4.125 36 C-6.16774528 42.55458406 -13.93825257 47.97207891 -18 60 C-19.43511079 68.70292186 -18.03307295 75.76653837 -13 83 C-10.90354288 85.71076782 -8.84906013 88.0712115 -6 90 C-2.87413125 90.33397787 -2.87413125 90.33397787 0 90 C2.375 91.1875 2.375 91.1875 4 93 C4.25 95.6875 4.25 95.6875 4 98 C4.96679688 98.33451172 4.96679688 98.33451172 5.953125 98.67578125 C17.91085841 103.87279615 35.0132353 112.88221121 41 125 C41.99 128.465 41.99 128.465 43 132 C4.39 132 -34.22 132 -74 132 C-73.67 130.35 -73.34 128.7 -73 127 C-74.72646332 123.99700092 -74.72646332 123.99700092 -77.1875 121 C-84.81271513 110.6724381 -87.38058827 99.81358492 -86 87 C-83.3812106 72.80943496 -75.63489292 63.11528959 -64 55 C-54.50541011 48.81013128 -44.41262175 44.64108439 -33.9375 40.4375 C-14.09176752 33.56602528 -14.09176752 33.56602528 1 20 C3.14288655 13.57134036 2.68159945 6.20119872 0 0 Z " fill="#37A9EA" transform="translate(147,93)"/>
<path d="M0 0 C35.97 0 71.94 0 109 0 C107.02 3.63 105.04 7.26 103 11 C100.76710723 15.15393909 98.56766798 19.32470933 96.375 23.5 C95.81554687 24.55058594 95.25609375 25.60117187 94.6796875 26.68359375 C86.11521552 42.80430142 86.11521552 42.80430142 86.765625 60.515625 C89.80582709 67.80245857 93.6675761 72.69888799 101 76 C103.32398522 76.80028285 105.60814862 77.41424048 108 78 C108 79.65 108 81.3 108 83 C73.02 83 38.04 83 2 83 C2 81.35 2 79.7 2 78 C2.97839844 77.65388672 2.97839844 77.65388672 3.9765625 77.30078125 C11.4947155 74.49533478 16.77204678 71.58052442 20.875 64.4375 C24.6462743 56.10875741 23.95167451 48.75973322 20.8125 40.3125 C14.99998542 26.41821427 7.46177448 13.05810535 0 0 Z " fill="#FDFDFD" transform="translate(88,0)"/>
<path d="M0 0 C4.5608367 -0.15078601 9.12103187 -0.24286695 13.68359375 -0.32421875 C15.62316956 -0.38941711 15.62316956 -0.38941711 17.60192871 -0.45593262 C26.91072635 -0.58073155 26.91072635 -0.58073155 29.97431946 1.05258179 C32.75525292 3.78490287 33.94938485 7.13292057 35.16259766 10.7734375 C36.50593639 14.34523029 38.40634607 17.5971805 40.23999023 20.93676758 C53.94097593 45.89537807 53.94097593 45.89537807 51.59375 59.32421875 C49.49037724 65.69693742 45.29664206 71.86815764 39.5625 75.4375 C35.80793894 77.08423731 33.04457603 77.66983053 29 78 C29 79.65 29 81.3 29 83 C34.94 83 40.88 83 47 83 C47.33 84.65 47.66 86.3 48 88 C45.5937378 90.4062622 45.04892823 90.25201459 41.765625 90.25878906 C40.89131836 90.26509338 40.01701172 90.27139771 39.11621094 90.27789307 C37.69743652 90.27182037 37.69743652 90.27182037 36.25 90.265625 C35.28094727 90.26753845 34.31189453 90.2694519 33.31347656 90.27142334 C31.26236715 90.27278579 29.21124914 90.26908518 27.16015625 90.26074219 C24.01282461 90.25004359 20.8660638 90.26063554 17.71875 90.2734375 C15.7291654 90.27211592 13.73958116 90.26955355 11.75 90.265625 C10.80415039 90.26967346 9.85830078 90.27372192 8.88378906 90.27789307 C7.5723291 90.26843658 7.5723291 90.26843658 6.234375 90.25878906 C5.46319336 90.25719788 4.69201172 90.25560669 3.89746094 90.25396729 C2 90 2 90 0 88 C-0.18813821 85.19850486 -0.2517501 82.49663997 -0.22705078 79.69482422 C-0.22734283 78.83621796 -0.22763489 77.97761169 -0.22793579 77.09298706 C-0.22653922 74.24678543 -0.21096273 71.40084356 -0.1953125 68.5546875 C-0.19158353 66.58456566 -0.18873601 64.61444198 -0.18673706 62.64431763 C-0.17909146 57.45256452 -0.15943504 52.26092286 -0.1373291 47.06921387 C-0.1168906 41.7740225 -0.10773962 36.47881317 -0.09765625 31.18359375 C-0.07619001 20.78901346 -0.04204292 10.39451599 0 0 Z " fill="#040403" transform="translate(0,0)"/>
<path d="M0 0 C18.81 0 37.62 0 57 0 C50 12 50 12 47.62890625 15.96875 C43.32719019 23.25246374 39.65248601 30.67220797 36.4375 38.5 C36.09082275 39.32435547 35.74414551 40.14871094 35.38696289 40.99804688 C32.11283221 49.26847582 32.25595677 55.96932702 35.546875 64.3125 C38.97575028 70.65407578 44.29944009 74.69586602 51.0625 77 C52.36869303 77.35724938 53.67941565 77.70029291 55 78 C55 79.65 55 81.3 55 83 C53.87972412 83.029729 53.87972412 83.029729 52.73681641 83.06005859 C49.36584395 83.15508211 45.99551071 83.26485259 42.625 83.375 C41.449375 83.4059375 40.27375 83.436875 39.0625 83.46875 C37.94101563 83.50742188 36.81953125 83.54609375 35.6640625 83.5859375 C34.62717285 83.6173584 33.5902832 83.6487793 32.52197266 83.68115234 C29.83190165 83.75954472 29.83190165 83.75954472 28 86 C25.31160615 86.26991906 22.70858064 86.08737357 20 86 C19.505 85.01 19.505 85.01 19 84 C13.06 83.67 7.12 83.34 1 83 C1 81.35 1 79.7 1 78 C1.73605469 77.75765625 2.47210937 77.5153125 3.23046875 77.265625 C12.06308835 74.23196437 16.50764029 71.49220909 20.984375 63.21875 C24.07721232 56.46209001 23.62259014 48.90326815 21.30810547 41.90917969 C15.64058272 27.3449261 7.56766201 13.62179161 0 0 Z " fill="#FBFBFB" transform="translate(28,0)"/>
<path d="M0 0 C1.98 0.99 1.98 0.99 4 2 C4 45.23 4 88.46 4 133 C24.79 133 45.58 133 67 133 C68.485 134.98 68.485 134.98 70 137 C46.9 137 23.8 137 0 137 C0 91.79 0 46.58 0 0 Z " fill="#F2F7EB" transform="translate(0,88)"/>
<path d="M0 0 C0 45.21 0 90.42 0 137 C-10.56 137 -21.12 137 -32 137 C-29 133 -29 133 -26.36450195 132.54589844 C-25.33284912 132.5668457 -24.30119629 132.58779297 -23.23828125 132.609375 C-22.12001953 132.62226563 -21.00175781 132.63515625 -19.84960938 132.6484375 C-18.09874023 132.69871094 -18.09874023 132.69871094 -16.3125 132.75 C-15.13365234 132.76804688 -13.95480469 132.78609375 -12.74023438 132.8046875 C-9.82601074 132.85188141 -6.91340969 132.91770923 -4 133 C-4.00276538 132.32670465 -4.00553076 131.65340931 -4.00837994 130.95971107 C-4.07456758 114.59408988 -4.1242453 98.22851095 -4.15543652 81.86278725 C-4.1709204 73.94851507 -4.19203882 66.03433211 -4.22631836 58.12011719 C-4.25617434 51.22390891 -4.27556393 44.32776522 -4.28226548 37.43149412 C-4.28618424 33.7782901 -4.29542503 30.12527091 -4.31719017 26.47212601 C-4.34126287 22.3988136 -4.34197246 18.32582466 -4.34057617 14.25244141 C-4.351362 13.03468521 -4.36214783 11.81692902 -4.3732605 10.56227112 C-4.36707451 8.90476585 -4.36707451 8.90476585 -4.36076355 7.21377563 C-4.36352893 6.24958017 -4.36629431 5.28538471 -4.36914349 4.29197121 C-4.24732614 3.53562071 -4.12550879 2.77927021 -4 2 C-1 0 -1 0 0 0 Z " fill="#F2F8EB" transform="translate(225,88)"/>
<path d="M0 0 C7.92 0 15.84 0 24 0 C24 15.84 24 31.68 24 48 C22.20573474 45.30860211 21.09723186 42.80741465 19.94433594 39.80786133 C15.69892735 28.82115884 10.12288628 18.66785454 4.33105469 8.4309082 C2.81366965 5.65970446 1.41294215 2.82588429 0 0 Z " fill="#FCFCFC" transform="translate(201,0)"/>
<path d="M0 0 C8.25 0 16.5 0 25 0 C24.01 0.495 24.01 0.495 23 1 C22.29731969 2.65180586 21.63608149 4.32142246 21 6 C20.1684571 7.59355434 19.30891679 9.17273002 18.42578125 10.73828125 C17.67627197 12.08140381 17.67627197 12.08140381 16.91162109 13.45166016 C16.38391113 14.3957373 15.85620117 15.33981445 15.3125 16.3125 C10.86799795 24.34561466 6.82755935 32.4070828 3.3046875 40.8828125 C2.29479939 43.29565894 1.16976082 45.66047835 0 48 C0 32.16 0 16.32 0 0 Z " fill="#FCFCFC" transform="translate(0,0)"/>
<path d="M0 0 C0.84175781 -0.00257813 1.68351562 -0.00515625 2.55078125 -0.0078125 C3.87142578 0.00378906 3.87142578 0.00378906 5.21875 0.015625 C6.09917969 0.00789062 6.97960937 0.00015625 7.88671875 -0.0078125 C8.72847656 -0.00523437 9.57023437 -0.00265625 10.4375 0 C11.59668945 0.00338379 11.59668945 0.00338379 12.77929688 0.00683594 C14.71875 0.265625 14.71875 0.265625 16.71875 2.265625 C16.34375 4.890625 16.34375 4.890625 15.71875 7.265625 C16.41742188 7.31460938 17.11609375 7.36359375 17.8359375 7.4140625 C19.20105469 7.52621094 19.20105469 7.52621094 20.59375 7.640625 C21.49867188 7.71023437 22.40359375 7.77984375 23.3359375 7.8515625 C25.71875 8.265625 25.71875 8.265625 27.71875 10.265625 C27.34375 12.890625 27.34375 12.890625 26.71875 15.265625 C20.20429795 15.3162189 13.68989632 15.35131356 7.17529297 15.37548828 C4.95782579 15.38556325 2.74037195 15.39922359 0.52294922 15.41650391 C-2.65921312 15.44068663 -5.84120024 15.45209297 -9.0234375 15.4609375 C-10.51724442 15.47642136 -10.51724442 15.47642136 -12.04122925 15.49221802 C-13.42243454 15.49244461 -13.42243454 15.49244461 -14.83154297 15.49267578 C-15.6442868 15.497117 -16.45703064 15.50155823 -17.29440308 15.50613403 C-19.28125 15.265625 -19.28125 15.265625 -21.28125 13.265625 C-20.74553571 9.72991071 -20.74553571 9.72991071 -19.28125 8.265625 C-16.93137738 8.03034727 -14.57568961 7.85176083 -12.21875 7.703125 C-10.92839844 7.61933594 -9.63804688 7.53554687 -8.30859375 7.44921875 C-7.30957031 7.38863281 -6.31054688 7.32804688 -5.28125 7.265625 C-5.4875 6.481875 -5.69375 5.698125 -5.90625 4.890625 C-6.03 4.024375 -6.15375 3.158125 -6.28125 2.265625 C-3.87295208 -0.14267292 -3.28841444 0.00959921 0 0 Z " fill="#75CBFB" transform="translate(122.28125,194.734375)"/>
<path d="M0 0 C1.22244667 0.00333092 1.22244667 0.00333092 2.46958923 0.00672913 C3.39046829 0.00680466 4.31134735 0.00688019 5.26013184 0.00695801 C6.2611644 0.01211929 7.26219696 0.01728058 8.29356384 0.02259827 C9.31316696 0.02401321 10.33277008 0.02542816 11.38327026 0.02688599 C14.65417867 0.03250355 17.92501972 0.04505902 21.19590759 0.05775452 C23.40749515 0.06276725 25.61908377 0.06733055 27.83067322 0.07142639 C33.26494116 0.08247868 38.69916957 0.09923389 44.13340759 0.12025452 C44.79340759 1.44025452 45.45340759 2.76025452 46.13340759 4.12025452 C44.13340759 7.12025452 44.13340759 7.12025452 42.25401306 7.55262756 C41.51038513 7.57881165 40.7667572 7.60499573 40.00059509 7.63197327 C39.19493103 7.66742249 38.38926697 7.7028717 37.55918884 7.73939514 C36.29655212 7.77323303 36.29655212 7.77323303 35.00840759 7.80775452 C33.73416931 7.85899475 33.73416931 7.85899475 32.43418884 7.91127014 C30.33439654 7.99384624 28.23392195 8.0587243 26.13340759 8.12025452 C26.36028259 8.71837952 26.58715759 9.31650452 26.82090759 9.93275452 C27.13340759 12.12025452 27.13340759 12.12025452 25.94004822 13.84535217 C22.85340813 16.023519 19.27061447 15.5499037 15.63340759 15.49525452 C14.47518494 15.51265686 14.47518494 15.51265686 13.29356384 15.53041077 C7.61700916 15.50089662 7.61700916 15.50089662 5.36973572 13.73207092 C4.96174744 13.20017151 4.55375916 12.66827209 4.13340759 12.12025452 C4.44590759 9.93275452 4.44590759 9.93275452 5.13340759 8.12025452 C2.82340759 7.46025452 0.51340759 6.80025452 -1.86659241 6.12025452 C-2.24878008 4.46410794 -2.58054342 2.79568427 -2.86659241 1.12025452 C-1.86659241 0.12025452 -1.86659241 0.12025452 0 0 Z " fill="#659C2F" transform="translate(17.866592407226563,127.87974548339844)"/>
<path d="M0 0 C37.29 0 74.58 0 113 0 C113.99 1.98 113.99 1.98 115 4 C76.39 4 37.78 4 -2 4 C-1.34 2.68 -0.68 1.36 0 0 Z " fill="#E9F4F5" transform="translate(75,221)"/>
<path d="M0 0 C3.1399642 6.58831773 5.39317613 12.64979488 4 20 C1.87415483 25.05323852 -1.28871269 29.12726384 -6 32 C-8.97 32.495 -8.97 32.495 -12 33 C-12 23.76 -12 14.52 -12 5 C-2 0 -2 0 0 0 Z " fill="#F0B02B" transform="translate(41,38)"/>
<path d="M0 0 C4.33791038 1.34268655 7.86425357 2.93212679 12 5 C12 14.24 12 23.48 12 33 C6.29921528 32.04986921 3.68173931 31.16781164 0 27 C-3.75954075 21.67398393 -5.09714943 16.4457529 -4 10 C-2.88286967 6.55711988 -1.53262791 3.27736057 0 0 Z " fill="#F6B22B" transform="translate(71,38)"/>
<path d="M0 0 C3.30537982 7.06820059 5.82854907 13.49479612 3.26953125 21.19921875 C0.6811503 26.91478648 -3.10957982 30.64383193 -9 33 C-9.99 33 -10.98 33 -12 33 C-12 23.76 -12 14.52 -12 5 C-2 0 -2 0 0 0 Z " fill="#F2B12B" transform="translate(214,38)"/>
<path d="M0 0 C6.31468484 0.16295961 11.08336386 3.73186173 16.25 7 C17.18787354 7.58942383 18.12574707 8.17884766 19.09204102 8.78613281 C28.6275641 14.88341824 37.97597249 21.47723372 43 32 C43.5 35.4375 43.5 35.4375 43 38 C42.34 38.66 41.68 39.32 41 40 C38.99609375 39.890625 38.99609375 39.890625 37 39 C35.91015625 37.109375 35.91015625 37.109375 35.0625 34.75 C30.17435378 22.83044346 16.46128475 16.25778715 5.66992188 10.36328125 C4.80818359 9.86957031 3.94644531 9.37585938 3.05859375 8.8671875 C2.27798584 8.43519043 1.49737793 8.00319336 0.69311523 7.55810547 C-1 6 -1 6 -1.31616211 3.38330078 C-1 1 -1 1 0 0 Z " fill="#030504" transform="translate(152,185)"/>
<path d="M0 0 C1.08667969 -0.01160156 1.08667969 -0.01160156 2.1953125 -0.0234375 C5.99388493 -0.00942063 7.76837084 0.09558056 11 2.25 C11.1875 4.875 11.1875 4.875 11 7.25 C8.36 7.91 5.72 8.57 3 9.25 C3.33 10.57 3.66 11.89 4 13.25 C3.67 13.91 3.34 14.57 3 15.25 C-0.97915159 15.27886984 -4.95827653 15.29675406 -8.9375 15.3125 C-10.64196289 15.32506836 -10.64196289 15.32506836 -12.38085938 15.33789062 C-13.46044922 15.34111328 -14.54003906 15.34433594 -15.65234375 15.34765625 C-17.15269165 15.35551147 -17.15269165 15.35551147 -18.68334961 15.36352539 C-21 15.25 -21 15.25 -22 14.25 C-22.125 11.75 -22.125 11.75 -22 9.25 C-20.26043342 7.51043342 -17.8063378 7.87809614 -15.4375 7.6875 C-14.42558594 7.60371094 -13.41367188 7.51992187 -12.37109375 7.43359375 C-11.58863281 7.37300781 -10.80617187 7.31242188 -10 7.25 C-10.33 5.6 -10.66 3.95 -11 2.25 C-7.26332113 -0.24111925 -4.32129024 -0.04613477 0 0 Z " fill="#669C2F" transform="translate(195,145.75)"/>
<path d="M0 0 C0.84175781 -0.00257813 1.68351562 -0.00515625 2.55078125 -0.0078125 C3.87142578 0.00378906 3.87142578 0.00378906 5.21875 0.015625 C6.09917969 0.00789062 6.97960937 0.00015625 7.88671875 -0.0078125 C8.72847656 -0.00523437 9.57023437 -0.00265625 10.4375 0 C11.59668945 0.00338379 11.59668945 0.00338379 12.77929688 0.00683594 C14.71875 0.265625 14.71875 0.265625 16.71875 2.265625 C16.38875 3.915625 16.05875 5.565625 15.71875 7.265625 C9.77875 7.760625 9.77875 7.760625 3.71875 8.265625 C4.37875 8.925625 5.03875 9.585625 5.71875 10.265625 C5.18303571 13.80133929 5.18303571 13.80133929 3.71875 15.265625 C0.5805155 15.51529067 -2.57174613 15.45084291 -5.71875 15.453125 C-6.60369141 15.46537109 -7.48863281 15.47761719 -8.40039062 15.49023438 C-9.24666016 15.49216797 -10.09292969 15.49410156 -10.96484375 15.49609375 C-11.74400146 15.50020264 -12.52315918 15.50431152 -13.32592773 15.50854492 C-15.28125 15.265625 -15.28125 15.265625 -17.28125 13.265625 C-16.72569444 8.71006944 -16.72569444 8.71006944 -15.28125 7.265625 C-13.59941052 7.03275492 -11.9100084 6.85298334 -10.21875 6.703125 C-8.84009766 6.57744141 -8.84009766 6.57744141 -7.43359375 6.44921875 C-6.72332031 6.38863281 -6.01304688 6.32804688 -5.28125 6.265625 C-5.4875 5.646875 -5.69375 5.028125 -5.90625 4.390625 C-6.03 3.689375 -6.15375 2.988125 -6.28125 2.265625 C-3.87295208 -0.14267292 -3.28841444 0.00959921 0 0 Z " fill="#74CAFB" transform="translate(88.28125,168.734375)"/>
<path d="M0 0 C0.78052734 -0.00773437 1.56105469 -0.01546875 2.36523438 -0.0234375 C8.18414502 -0.00335498 8.18414502 -0.00335498 10.4375 2.25 C10.0625 4.875 10.0625 4.875 9.4375 7.25 C10.55125 7.37375 11.665 7.4975 12.8125 7.625 C16.4375 8.25 16.4375 8.25 18.4375 10.25 C17.90178571 13.78571429 17.90178571 13.78571429 16.4375 15.25 C15.02179877 15.33651611 13.601905 15.35704904 12.18359375 15.34765625 C11.32958984 15.34443359 10.47558594 15.34121094 9.59570312 15.33789062 C8.69787109 15.32951172 7.80003906 15.32113281 6.875 15.3125 C5.97330078 15.30798828 5.07160156 15.30347656 4.14257812 15.29882812 C1.90748686 15.28700225 -0.32747437 15.2705222 -2.5625 15.25 C-3.625 13.375 -3.625 13.375 -4.5625 11.25 C-4.2325 10.59 -3.9025 9.93 -3.5625 9.25 C-5.8725 8.59 -8.1825 7.93 -10.5625 7.25 C-10.8925 5.6 -11.2225 3.95 -11.5625 2.25 C-7.69957629 -0.32528248 -4.47303122 -0.04454471 0 0 Z " fill="#669D2F" transform="translate(195.5625,100.75)"/>
<path d="M0 0 C0.33 0 0.66 0 1 0 C1 11.88 1 23.76 1 36 C-8 29.25 -8 29.25 -12 26 C-11.52658038 19.97376271 -8.83594294 15.39066753 -6 10.1875 C-5.5359375 9.31673828 -5.071875 8.44597656 -4.59375 7.54882812 C-1.17678571 1.17678571 -1.17678571 1.17678571 0 0 Z " fill="#FAB62C" transform="translate(195,17)"/>
<path d="M0 0 C3.81522617 4.76903271 6.22504127 9.05842012 8.8125 14.5 C9.23208984 15.34175781 9.65167969 16.18351562 10.08398438 17.05078125 C10.47521484 17.86933594 10.86644531 18.68789063 11.26953125 19.53125 C11.80477417 20.63823242 11.80477417 20.63823242 12.35083008 21.76757812 C13.16327833 24.5614957 12.88106462 26.24645697 12 29 C9.78515625 30.80078125 9.78515625 30.80078125 7.0625 32.3125 C6.16660156 32.82425781 5.27070312 33.33601563 4.34765625 33.86328125 C2 35 2 35 0 35 C0 23.45 0 11.9 0 0 Z " fill="#F7B52C" transform="translate(90,18)"/>
<path d="M0 0 C0.33 0 0.66 0 1 0 C1 9.9 1 19.8 1 30 C0.34 29.67 -0.32 29.34 -1 29 C-2.59262066 28.84824451 -4.19064856 28.75099675 -5.7890625 28.68359375 C-7.20058594 28.62075195 -7.20058594 28.62075195 -8.640625 28.55664062 C-9.62546875 28.51732422 -10.6103125 28.47800781 -11.625 28.4375 C-13.11386719 28.37272461 -13.11386719 28.37272461 -14.6328125 28.30664062 C-17.08839838 28.20038931 -19.54408703 28.09835036 -22 28 C-22 26.35 -22 24.7 -22 23 C-21.26394531 22.76925781 -20.52789062 22.53851563 -19.76953125 22.30078125 C-11.216748 19.44232133 -6.52900217 15.96479692 -2 8 C-1.14895062 5.34107171 -0.56717781 2.74135941 0 0 Z " fill="#F2F2F2" transform="translate(224,55)"/>
<path d="M0 0 C0.33 0 0.66 0 1 0 C1.226875 1.155 1.45375 2.31 1.6875 3.5 C3.35800087 10.00919303 6.19198302 15.11936281 11.875 18.875 C15.48034871 20.91071971 18.97400609 22.0773764 23 23 C23 24.65 23 26.3 23 28 C22.06148193 28.03758423 22.06148193 28.03758423 21.10400391 28.07592773 C18.27745381 28.19175273 15.45124831 28.31453985 12.625 28.4375 C11.64015625 28.47681641 10.6553125 28.51613281 9.640625 28.55664062 C8.69960937 28.59853516 7.75859375 28.64042969 6.7890625 28.68359375 C5.48509521 28.73858032 5.48509521 28.73858032 4.15478516 28.79467773 C1.9516738 28.87401544 1.9516738 28.87401544 0 30 C0 20.1 0 10.2 0 0 Z " fill="#F4F4F4" transform="translate(0,55)"/>
<path d="M0 0 C0.33 0 0.66 0 1 0 C1 10.89 1 21.78 1 33 C-2.54997152 31.58001139 -5.18729934 30.3878411 -8.3125 28.375 C-9.00988281 27.92898437 -9.70726562 27.48296875 -10.42578125 27.0234375 C-10.94527344 26.68570313 -11.46476563 26.34796875 -12 26 C-11.37510096 21.15229835 -9.33154218 17.28654431 -7.125 13 C-6.77308594 12.30132812 -6.42117187 11.60265625 -6.05859375 10.8828125 C-4.17505506 7.17175115 -2.27625393 3.48934734 0 0 Z " fill="#FAB62C" transform="translate(22,17)"/>
<path d="M0 0 C6.24338821 0.95876528 11.61297585 3.39437843 16 8 C16.94759363 12.47243366 16.6700327 16.49927527 16 21 C9.93087207 20.20543451 6.4810597 18.14727018 2.734375 13.39453125 C-0.21177262 8.86119847 -0.37459572 5.33798905 0 0 Z " fill="#F1AF2A" transform="translate(7,50)"/>
<path d="M0 0 C5.94127257 2.76874838 11.42664015 6.30666003 16 11 C16.98576892 14.55369697 16.80630278 17.42389786 16 21 C10.0840362 20.7114164 6.88837215 18.19276492 3 14 C-0.23291136 9.2027767 -0.28948647 5.59673839 0 0 Z " fill="#EDAC2A" transform="translate(180,50)"/>
<path d="M0 0 C1.16499023 -0.01836914 1.16499023 -0.01836914 2.35351562 -0.03710938 C6.27482309 -0.04724195 8.22868745 -0.0350417 11.5625 2.1875 C10.6875 7.0625 10.6875 7.0625 9.5625 8.1875 C6.4242655 8.43716567 3.27200387 8.37271791 0.125 8.375 C-0.75994141 8.38724609 -1.64488281 8.39949219 -2.55664062 8.41210938 C-3.40291016 8.41404297 -4.24917969 8.41597656 -5.12109375 8.41796875 C-5.90025146 8.42207764 -6.67940918 8.42618652 -7.48217773 8.43041992 C-9.4375 8.1875 -9.4375 8.1875 -11.4375 6.1875 C-11.1875 3.625 -11.1875 3.625 -10.4375 1.1875 C-7.16938198 -0.44655901 -3.58750593 0.00296243 0 0 Z " fill="#72C9FA" transform="translate(112.4375,145.8125)"/>
<path d="M0 0 C1.16499023 -0.01836914 1.16499023 -0.01836914 2.35351562 -0.03710938 C6.27482309 -0.04724195 8.22868745 -0.0350417 11.5625 2.1875 C11.1875 4.625 11.1875 4.625 10.5625 7.1875 C7.29228041 8.82260979 3.71516249 8.41378299 0.125 8.4375 C-1.03999023 8.4684375 -1.03999023 8.4684375 -2.22851562 8.5 C-7.99129006 8.53970904 -7.99129006 8.53970904 -10.19555664 6.79980469 C-11.4375 5.1875 -11.4375 5.1875 -11.25 3.0625 C-9.35228954 -1.31683182 -4.08699132 0.00337489 0 0 Z " fill="#679E30" transform="translate(33.4375,179.8125)"/>
<path d="M0 0 C1.16499023 -0.0309375 1.16499023 -0.0309375 2.35351562 -0.0625 C8.11629006 -0.10220904 8.11629006 -0.10220904 10.32055664 1.63769531 C11.5625 3.25 11.5625 3.25 11.375 5.375 C10.5625 7.25 10.5625 7.25 8.5625 8.25 C5.73659019 8.40071519 2.95177538 8.48132601 0.125 8.5 C-1.03999023 8.5309375 -1.03999023 8.5309375 -2.22851562 8.5625 C-7.99129006 8.60220904 -7.99129006 8.60220904 -10.19555664 6.86230469 C-11.4375 5.25 -11.4375 5.25 -11.25 3.125 C-9.35734599 -1.24266309 -4.08526308 0.0269877 0 0 Z " fill="#679E30" transform="translate(97.4375,100.75)"/>
<path d="M0 0 C1.93945312 -0.37231445 1.93945312 -0.37231445 4.28125 -0.36328125 C5.54388672 -0.36231445 5.54388672 -0.36231445 6.83203125 -0.36132812 C7.71246094 -0.34521484 8.59289062 -0.32910156 9.5 -0.3125 C10.38042969 -0.31572266 11.26085937 -0.31894531 12.16796875 -0.32226562 C18.73302968 -0.26697032 18.73302968 -0.26697032 21 2 C20.46428571 5.53571429 20.46428571 5.53571429 19 7 C17.58429877 7.08651611 16.164405 7.10704904 14.74609375 7.09765625 C13.89208984 7.09443359 13.03808594 7.09121094 12.15820312 7.08789062 C11.26037109 7.07951172 10.36253906 7.07113281 9.4375 7.0625 C8.53580078 7.05798828 7.63410156 7.05347656 6.70507812 7.04882812 C4.46998686 7.03700225 2.23502563 7.0205222 0 7 C-0.66 5.68 -1.32 4.36 -2 3 C-1.34 2.01 -0.68 1.02 0 0 Z " fill="#659C2F" transform="translate(193,188)"/>
<path d="M0 0 C-0.11440772 6.40683211 -1.59708637 9.70577443 -6.01171875 14.3671875 C-8.92609769 16.76052816 -11.30638842 17.39696138 -15 18 C-15 14.7 -15 11.4 -15 8 C-12.6889639 6.66407203 -10.37628245 5.33115569 -8.0625 4 C-7.40314453 3.6184375 -6.74378906 3.236875 -6.06445312 2.84375 C-1.11328125 0 -1.11328125 0 0 0 Z " fill="#F4B32B" transform="translate(105,53)"/>
<path d="M0 0 C0.33 0 0.66 0 1 0 C1 11.88 1 23.76 1 36 C0.67 36 0.34 36 0 36 C-0.33 27.09 -0.66 18.18 -1 9 C-3.21424376 13.75605885 -3.21424376 13.75605885 -5.42724609 18.51269531 C-6.91124115 21.69647697 -8.40309346 24.8707084 -10 28 C-10.66 27.34 -11.32 26.68 -12 26 C-11.85265389 20.07852822 -8.76389908 15.25848706 -6 10.1875 C-5.5359375 9.31673828 -5.071875 8.44597656 -4.59375 7.54882812 C-1.17678571 1.17678571 -1.17678571 1.17678571 0 0 Z " fill="#C17318" transform="translate(195,17)"/>
<path d="M0 0 C0.33 0 0.66 0 1 0 C1 10.89 1 21.78 1 33 C0.34 32.67 -0.32 32.34 -1 32 C-1 24.74 -1 17.48 -1 10 C-3.64 15.61 -6.28 21.22 -9 27 C-9.99 26.67 -10.98 26.34 -12 26 C-11.37510096 21.15229835 -9.33154218 17.28654431 -7.125 13 C-6.77308594 12.30132812 -6.42117187 11.60265625 -6.05859375 10.8828125 C-4.17505506 7.17175115 -2.27625393 3.48934734 0 0 Z " fill="#DB801A" transform="translate(22,17)"/>
<path d="M0 0 C1.32 0.66 2.64 1.32 4 2 C3.505 3.11375 3.01 4.2275 2.5 5.375 C0.43676761 10.96250973 -0.27718022 16.68264878 1.90234375 22.34375 C2.60260962 23.71936124 3.34046345 25.07689641 4.125 26.40625 C5 28 5 28 5 30 C0.78220697 28.49364535 -0.7747674 25.75987578 -3 22 C-5.67045626 13.98863123 -3.46521098 7.40998242 0 0 Z " fill="#EE8219" transform="translate(71,38)"/>
<path d="M0 0 C2.52065112 2.52065112 4.01404352 4.40978767 5.75 7.4375 C6.19859375 8.19933594 6.6471875 8.96117187 7.109375 9.74609375 C8.14202436 12.3594213 8.08306514 13.4374902 7 16 C4.41847698 17.72101535 3.15081975 18 0 18 C0 12.06 0 6.12 0 0 Z " fill="#DCA127" transform="translate(29,17)"/>
<path d="M0 0 C2.52065112 2.52065112 4.01404352 4.40978767 5.75 7.4375 C6.19859375 8.19933594 6.6471875 8.96117187 7.109375 9.74609375 C8.14202436 12.3594213 8.08306514 13.4374902 7 16 C4.41847698 17.72101535 3.15081975 18 0 18 C0 12.06 0 6.12 0 0 Z " fill="#E1A528" transform="translate(202,17)"/>
<path d="M0 0 C0.33 0 0.66 0 1 0 C1 5.94 1 11.88 1 18 C-1.31 17.34 -3.62 16.68 -6 16 C-7 13 -7 13 -5.56640625 9.86328125 C-4.90864027 8.6739872 -4.24022185 7.49053629 -3.5625 6.3125 C-3.22412109 5.70599609 -2.88574219 5.09949219 -2.53710938 4.47460938 C-1.70042085 2.9779975 -0.85137169 1.48830811 0 0 Z " fill="#E4841A" transform="translate(82,17)"/>
<path d="M0 0 C2.475 0.495 2.475 0.495 5 1 C5.02578125 1.65226562 5.0515625 2.30453125 5.078125 2.9765625 C5.46780793 8.98122225 6.39279225 12.22917684 10 17 C10 17.99 10 18.98 10 20 C5.49655977 16.62241983 1.92316684 13.41581468 0 8 C-0.30085272 5.23409599 -0.19611918 2.79469829 0 0 Z " fill="#EF8319" transform="translate(7,50)"/>
<path d="M0 0 C1.9375 0.734375 1.9375 0.734375 4 2 C4.6875 3.953125 4.6875 3.953125 5 6.25 C5.77417234 10.6275927 7.40238377 13.36333727 10 17 C10 17.99 10 18.98 10 20 C5.48513993 16.51180674 1.89168571 13.56378149 0 8 C-0.21699209 5.27773565 -0.14169289 2.73939594 0 0 Z " fill="#F2851A" transform="translate(180,50)"/>
<path d="M0 0 C1.23593891 3.70781672 0.5678132 4.67510253 -0.9375 8.1875 C-1.31777344 9.08855469 -1.69804687 9.98960938 -2.08984375 10.91796875 C-2.54037109 11.94857422 -2.54037109 11.94857422 -3 13 C-3.99 12.34 -4.98 11.68 -6 11 C-5.52274659 6.80017003 -4.9025517 4.13475583 -2 1 C-1.34 0.67 -0.68 0.34 0 0 Z " fill="#F3861A" transform="translate(189,32)"/>
<path d="M0 0 C0.33 0 0.66 0 1 0 C1 3.63 1 7.26 1 11 C-0.32 10.34 -1.64 9.68 -3 9 C-2.01 6.03 -1.02 3.06 0 0 Z " fill="#FCB62C" transform="translate(81,24)"/>
</svg>
